Coordinates
nRows=267
nColumns=2
inDegrees=yes
endheader
time	ankle_angle_r	
3.19355	  9.551923	
3.22681	  9.543819	
3.26008	  9.543528	
3.29335	  9.548284	
3.32661	  9.551946	
3.35988	  9.552273	
3.39315	  9.549264	
3.42641	  9.545805	
3.45968	  9.546152	
3.49294	  9.550747	
3.52621	  9.558124	
3.55948	  9.566096	
3.59274	  9.570611	
3.62601	  9.570850	
3.65927	  9.569335	
3.69254	  9.567720	
3.72581	  9.568624	
3.75907	  9.573004	
3.79234	  9.576600	
3.8256	  9.576819	
3.85887	  9.575103	
3.89214	  9.571970	
3.9254	  9.568743	
3.95867	  9.567715	
3.99194	  9.567916	
4.0252	  9.567757	
4.05847	  9.567672	
4.09173	  9.569222	
4.125	  9.575311	
4.15827	  9.586364	
4.19153	  9.598541	
4.2248	  9.609223	
4.25806	  9.615875	
4.29133	  9.613954	
4.3246	  9.606008	
4.35786	  9.600523	
4.39113	  9.600210	
4.4244	  9.605368	
4.45766	  9.617819	
4.49093	  9.635797	
4.52419	  9.656161	
4.55746	  9.672504	
4.59073	  9.671810	
4.62399	  9.651402	
4.65726	  9.627823	
4.69052	  9.617115	
4.72379	  9.621201	
4.75706	  9.631744	
4.79032	  9.638283	
4.82359	  9.637983	
4.85685	  9.635108	
4.89012	  9.632091	
4.92339	  9.629695	
4.95665	  9.630631	
4.98992	  9.635968	
5.02319	  9.641437	
5.05645	  9.639353	
5.08972	  9.625560	
5.12298	  9.604426	
5.15625	  9.583150	
5.18952	  9.566203	
5.22278	  9.556062	
5.25605	  9.551463	
5.28931	  9.549107	
5.32258	  9.547776	
5.35585	  9.545553	
5.38911	  9.541204	
5.42238	  9.538477	
5.45565	  9.540195	
5.48891	  9.544027	
5.52218	  9.546113	
5.55544	  9.542967	
5.58871	  9.535058	
5.62198	  9.528151	
5.65524	  9.524736	
5.68851	  9.521591	
5.72177	  9.516585	
5.75504	  9.510795	
5.78831	  9.508289	
5.82157	  9.511575	
5.85484	  9.515838	
5.8881	  9.517248	
5.92137	  9.519775	
5.95464	  9.525944	
5.9879	  9.532923	
6.02117	  9.538086	
6.05444	  9.538855	
6.0877	  9.534331	
6.12097	  9.529052	
6.15423	  9.526541	
6.1875	  9.526425	
6.22077	  9.529304	
6.25403	  9.533942	
6.2873	  9.536514	
6.32056	  9.537209	
6.35383	  9.538704	
6.3871	  9.541773	
6.42036	  9.546089	
6.45363	  9.549077	
6.4869	  9.548331	
6.52016	  9.546914	
6.55343	  9.548154	
6.58669	  9.550633	
6.61996	  9.552451	
6.65323	  9.553045	
6.68649	  9.553395	
6.71976	  9.555381	
6.75302	  9.558367	
6.78629	  9.560965	
6.81956	  9.562191	
6.85282	  9.561480	
6.88609	  9.563021	
6.91935	  9.569862	
6.95262	  9.575547	
6.98589	  9.574944	
7.01915	  9.572878	
7.05242	  9.573616	
7.08569	  9.574732	
7.11895	  9.572537	
7.15222	  9.566518	
7.18548	  9.560291	
7.21875	  9.557239	
7.25202	  9.556384	
7.28528	  9.556148	
7.31855	  9.555285	
7.35181	  9.552657	
7.38508	  9.553152	
7.41835	  9.561245	
7.45161	  9.570491	
7.48488	  9.573046	
7.51815	  9.568978	
7.55141	  9.561421	
7.58468	  9.553551	
7.61794	  9.548807	
7.65121	  9.548357	
7.68448	  9.549712	
7.71774	  9.547258	
7.75101	  9.537404	
7.78427	  9.527186	
7.81754	  9.527736	
7.85081	  9.537675	
7.88407	  9.545784	
7.91734	  9.543559	
7.9506	  9.528453	
7.98387	  9.508919	
8.01714	  9.499736	
8.0504	  9.501609	
8.08367	  9.504802	
8.11694	  9.510166	
8.1502	  9.523424	
8.18347	  9.539206	
8.21673	  9.547020	
8.25	  9.544111	
8.28327	  9.534635	
8.31653	  9.524187	
8.3498	  9.519114	
8.38306	  9.520317	
8.41633	  9.519274	
8.4496	  9.512784	
8.48286	  9.509103	
8.51613	  9.510895	
8.5494	  9.509807	
8.58266	  9.499122	
8.61593	  9.482170	
8.64919	  9.470764	
8.68246	  9.474580	
8.71573	  9.489522	
8.74899	  9.501617	
8.78226	  9.502391	
8.81552	  9.492662	
8.84879	  9.477639	
8.88206	  9.465225	
8.91532	  9.461064	
8.94859	  9.466873	
8.98185	  9.482954	
9.01512	  9.502793	
9.04839	  9.514234	
9.08165	  9.512217	
9.11492	  9.501764	
9.14819	  9.491794	
9.18145	  9.489277	
9.21472	  9.494608	
9.24798	  9.503655	
9.28125	  9.510382	
9.31452	  9.507973	
9.34778	  9.498714	
9.38105	  9.493632	
9.41431	  9.495720	
9.44758	  9.501196	
9.48085	  9.510111	
9.51411	  9.519109	
9.54738	  9.521065	
9.58065	  9.518368	
9.61391	  9.519228	
9.64718	  9.524736	
9.68044	  9.529714	
9.71371	  9.529494	
9.74698	  9.524169	
9.78024	  9.518977	
9.81351	  9.520033	
9.84677	  9.528975	
9.88004	  9.538910	
9.91331	  9.541299	
9.94657	  9.537996	
9.97984	  9.537293	
10.0131	  9.544539	
10.0464	  9.559515	
10.0796	  9.574088	
10.1129	  9.577788	
10.1462	  9.569259	
10.1794	  9.556051	
10.2127	  9.548178	
10.246	  9.553776	
10.2792	  9.569650	
10.3125	  9.581740	
10.3458	  9.583236	
10.379	  9.579007	
10.4123	  9.574075	
10.4456	  9.570669	
10.4788	  9.570014	
10.5121	  9.572200	
10.5454	  9.578003	
10.5786	  9.586672	
10.6119	  9.593215	
10.6452	  9.594140	
10.6784	  9.589053	
10.7117	  9.578507	
10.745	  9.570152	
10.7782	  9.573836	
10.8115	  9.585907	
10.8448	  9.594195	
10.878	  9.592638	
10.9113	  9.583069	
10.9446	  9.572832	
10.9778	  9.568577	
11.0111	  9.569343	
11.0444	  9.571828	
11.0776	  9.575731	
11.1109	  9.579730	
11.1442	  9.581529	
11.1774	  9.580788	
11.2107	  9.577166	
11.244	  9.570183	
11.2772	  9.561699	
11.3105	  9.557726	
11.3437	  9.562676	
11.377	  9.568364	
11.4103	  9.562870	
11.4435	  9.548900	
11.4768	  9.538555	
11.5101	  9.538242	
11.5433	  9.545557	
11.5766	  9.553349	
11.6099	  9.557064	
11.6431	  9.557010	
11.6764	  9.552116	
11.7097	  9.541820	
11.7429	  9.531923	
11.7762	  9.528513	
11.8095	  9.531713	
11.8427	  9.536965	
11.876	  9.537546	
11.9093	  9.531258	
11.9425	  9.524204	
11.9758	  9.521309	
12.0091	  9.520741	
12.0423	  9.520217	
